<svg width="30" height="30" viewBox="0 0 30 30" fill="none" xmlns="http://www.w3.org/2000/svg">
<path d="M11.352 22.2418C11.7872 22.7921 12.3417 23.2362 12.9736 23.5408C13.6056 23.8453 14.2985 24.0023 15 23.9998C15.7015 24.0023 16.3944 23.8453 17.0264 23.5408C17.6584 23.2362 18.2129 22.7921 18.648 22.2418C16.2271 22.57 13.7729 22.57 11.352 22.2418ZM21.75 10.9998V11.7038C21.75 12.5488 21.99 13.3748 22.442 14.0778L23.55 15.8008C24.561 17.3748 23.789 19.5138 22.03 20.0108C17.4338 21.3128 12.5663 21.3128 7.97003 20.0108C6.21103 19.5138 5.43903 17.3748 6.45003 15.8008L7.55803 14.0778C8.0116 13.3692 8.25213 12.5452 8.25103 11.7038V10.9998C8.25103 7.13383 11.273 3.99983 15 3.99983C18.727 3.99983 21.75 7.13383 21.75 10.9998Z" fill="#EDEDED"/>
</svg>
