<svg width="24" height="24" viewBox="0 0 24 24" fill="none" xmlns="http://www.w3.org/2000/svg">
<path fill-rule="evenodd" clip-rule="evenodd" d="M2.52 7.823C2 8.77 2 9.915 2 12.203V13.725C2 17.625 2 19.576 3.172 20.788C4.343 22 6.229 22 10 22H14C17.771 22 19.657 22 20.828 20.788C22 19.576 22 17.626 22 13.725V12.204C22 9.915 22 8.771 21.48 7.823C20.962 6.874 20.013 6.286 18.116 5.108L16.116 3.867C14.111 2.622 13.108 2 12 2C10.892 2 9.89 2.622 7.884 3.867L5.884 5.108C3.987 6.286 3.039 6.874 2.52 7.823ZM9.447 15.398C9.36814 15.3366 9.27782 15.2916 9.18134 15.2657C9.08486 15.2397 8.98416 15.2333 8.88516 15.2468C8.78615 15.2603 8.69084 15.2934 8.60483 15.3442C8.51881 15.3951 8.44381 15.4626 8.38424 15.5428C8.32468 15.623 8.28174 15.7143 8.25796 15.8114C8.23417 15.9084 8.23002 16.0092 8.24574 16.1079C8.26146 16.2066 8.29674 16.3011 8.3495 16.386C8.40227 16.4708 8.47145 16.5443 8.553 16.602C9.54827 17.3461 10.7573 17.7488 12 17.75C13.2427 17.7488 14.4517 17.3461 15.447 16.602C15.5285 16.5443 15.5977 16.4708 15.6505 16.386C15.7033 16.3011 15.7385 16.2066 15.7543 16.1079C15.77 16.0092 15.7658 15.9084 15.742 15.8114C15.7183 15.7143 15.6753 15.623 15.6158 15.5428C15.5562 15.4626 15.4812 15.3951 15.3952 15.3442C15.3092 15.2934 15.2138 15.2603 15.1148 15.2468C15.0158 15.2333 14.9151 15.2397 14.8187 15.2657C14.7222 15.2916 14.6319 15.3366 14.553 15.398C13.8162 15.95 12.9206 16.2488 12 16.25C11.0794 16.2488 10.1838 15.95 9.447 15.398Z" fill="#616161"/>
</svg>
