<svg width="30" height="30" viewBox="0 0 30 30" fill="none" xmlns="http://www.w3.org/2000/svg">
<path fill-rule="evenodd" clip-rule="evenodd" d="M16.087 24.388L16.629 23.472C17.049 22.762 17.259 22.406 17.597 22.21C17.935 22.013 18.36 22.006 19.21 21.991C20.466 21.97 21.253 21.893 21.913 21.619C22.5196 21.3677 23.0708 20.9994 23.5351 20.5351C23.9994 20.0708 24.3677 19.5196 24.619 18.913C25 17.995 25 16.83 25 14.5V13.5C25 10.227 25 8.59 24.263 7.388C23.8509 6.7152 23.2855 6.14945 22.613 5.737C21.41 5 19.773 5 16.5 5H13.5C10.227 5 8.58997 5 7.38797 5.737C6.71517 6.14904 6.14942 6.71445 5.73697 7.387C4.99997 8.59 4.99997 10.228 4.99997 13.5V14.5C4.99997 16.83 4.99997 17.995 5.37997 18.913C5.63136 19.5197 5.99981 20.071 6.46429 20.5353C6.92876 20.9996 7.48015 21.3678 8.08697 21.619C8.74697 21.893 9.53397 21.969 10.79 21.991C11.64 22.006 12.065 22.013 12.403 22.21C12.74 22.406 12.951 22.761 13.371 23.472L13.913 24.388C14.396 25.204 15.603 25.204 16.087 24.388ZM19 15C19.2652 15 19.5195 14.8946 19.7071 14.7071C19.8946 14.5196 20 14.2652 20 14C20 13.7348 19.8946 13.4804 19.7071 13.2929C19.5195 13.1054 19.2652 13 19 13C18.7348 13 18.4804 13.1054 18.2929 13.2929C18.1053 13.4804 18 13.7348 18 14C18 14.2652 18.1053 14.5196 18.2929 14.7071C18.4804 14.8946 18.7348 15 19 15ZM16 14C16 14.2652 15.8946 14.5196 15.7071 14.7071C15.5195 14.8946 15.2652 15 15 15C14.7348 15 14.4804 14.8946 14.2929 14.7071C14.1053 14.5196 14 14.2652 14 14C14 13.7348 14.1053 13.4804 14.2929 13.2929C14.4804 13.1054 14.7348 13 15 13C15.2652 13 15.5195 13.1054 15.7071 13.2929C15.8946 13.4804 16 13.7348 16 14ZM11 15C11.2652 15 11.5195 14.8946 11.7071 14.7071C11.8946 14.5196 12 14.2652 12 14C12 13.7348 11.8946 13.4804 11.7071 13.2929C11.5195 13.1054 11.2652 13 11 13C10.7348 13 10.4804 13.1054 10.2929 13.2929C10.1053 13.4804 9.99997 13.7348 9.99997 14C9.99997 14.2652 10.1053 14.5196 10.2929 14.7071C10.4804 14.8946 10.7348 15 11 15Z" fill="#EDEDED"/>
</svg>
