<svg width="24" height="24" viewBox="0 0 24 24" fill="none" xmlns="http://www.w3.org/2000/svg">
<path d="M20.062 12.647L20.579 10.715C21.183 8.45997 21.486 7.33297 21.259 6.35697C21.0791 5.58646 20.6747 4.88662 20.097 4.34597C19.366 3.66097 18.238 3.35897 15.983 2.75497C13.728 2.14997 12.6 1.84797 11.625 2.07497C10.8545 2.25488 10.1547 2.65927 9.614 3.23697C9.027 3.86297 8.721 4.77997 8.266 6.44597L8.022 7.35097L7.505 9.28297C6.9 11.538 6.598 12.665 6.825 13.641C7.00491 14.4115 7.4093 15.1113 7.987 15.652C8.718 16.337 9.846 16.639 12.101 17.244C14.133 17.788 15.25 18.087 16.165 17.974C16.265 17.962 16.363 17.944 16.459 17.922C17.2293 17.7426 17.9291 17.3389 18.47 16.762C19.155 16.03 19.457 14.902 20.062 12.647Z" fill="#616161"/>
<path d="M2.50499 14.715L3.02199 16.647C3.62599 18.902 3.92899 20.03 4.61399 20.761C5.15464 21.3378 5.85408 21.7415 6.62399 21.921C7.59999 22.149 8.72799 21.847 10.984 21.243C13.238 20.639 14.366 20.337 15.097 19.652C15.157 19.595 15.217 19.536 15.273 19.476C14.9325 19.445 14.5939 19.3949 14.259 19.326C13.563 19.188 12.736 18.966 11.758 18.704L11.651 18.675L11.626 18.669C10.562 18.384 9.67299 18.145 8.96299 17.889C8.21599 17.619 7.53799 17.286 6.96099 16.746C6.16731 16.0024 5.61191 15.0402 5.36499 13.981C5.18499 13.212 5.23699 12.459 5.37699 11.677C5.51099 10.928 5.75099 10.031 6.03899 8.95499L6.57399 6.96099L6.59199 6.89099C4.67199 7.40799 3.66099 7.71399 2.98699 8.34499C2.40949 8.88605 2.00545 9.58624 1.82599 10.357C1.59799 11.332 1.89999 12.46 2.50499 14.715Z" fill="#616161"/>
</svg>
