<svg width="24" height="24" viewBox="0 0 24 24" fill="none" xmlns="http://www.w3.org/2000/svg">
<path d="M2.237 2.28798C2.14319 2.25534 2.04382 2.24167 1.94468 2.24774C1.84554 2.25382 1.74859 2.27953 1.65947 2.32338C1.57035 2.36723 1.49082 2.42835 1.42551 2.50318C1.36019 2.57802 1.3104 2.66508 1.27901 2.75932C1.24762 2.85355 1.23526 2.95309 1.24265 3.05214C1.25004 3.15119 1.27703 3.24779 1.32206 3.33633C1.36709 3.42486 1.42925 3.50357 1.50494 3.56789C1.58064 3.6322 1.66835 3.68084 1.763 3.71098L2.028 3.79998C2.704 4.02498 3.152 4.17598 3.481 4.32898C3.793 4.47398 3.928 4.59098 4.014 4.71098C4.101 4.83098 4.169 4.99498 4.208 5.33698C4.249 5.69798 4.25 6.16998 4.25 6.88298V9.55498C4.25 10.922 4.25 12.025 4.367 12.892C4.487 13.792 4.747 14.55 5.349 15.152C5.95 15.754 6.709 16.012 7.609 16.133C8.475 16.25 9.578 16.25 10.945 16.25H18C18.1989 16.25 18.3897 16.171 18.5303 16.0303C18.671 15.8897 18.75 15.6989 18.75 15.5C18.75 15.3011 18.671 15.1103 18.5303 14.9696C18.3897 14.829 18.1989 14.75 18 14.75H11C9.565 14.75 8.564 14.748 7.808 14.647C7.075 14.548 6.686 14.367 6.409 14.091C6.174 13.856 6.009 13.54 5.903 13H16.023C16.982 13 17.461 13 17.837 12.752C18.213 12.504 18.402 12.064 18.78 11.182L19.208 10.182C20.018 8.29198 20.423 7.34798 19.978 6.67398C19.533 5.99998 18.506 5.99998 16.45 5.99998H5.745C5.74222 5.72173 5.72654 5.44377 5.698 5.16698C5.643 4.68198 5.522 4.23698 5.231 3.83398C4.94 3.42998 4.556 3.17398 4.114 2.96898C3.697 2.77498 3.168 2.59898 2.542 2.38898L2.237 2.28798ZM7.5 18C7.89782 18 8.27935 18.158 8.56066 18.4393C8.84196 18.7206 9 19.1022 9 19.5C9 19.8978 8.84196 20.2793 8.56066 20.5606C8.27935 20.8419 7.89782 21 7.5 21C7.10217 21 6.72064 20.8419 6.43934 20.5606C6.15803 20.2793 6 19.8978 6 19.5C6 19.1022 6.15803 18.7206 6.43934 18.4393C6.72064 18.158 7.10217 18 7.5 18ZM16.5 18C16.8978 18 17.2794 18.158 17.5607 18.4393C17.842 18.7206 18 19.1022 18 19.5C18 19.8978 17.842 20.2793 17.5607 20.5606C17.2794 20.8419 16.8978 21 16.5 21C16.1022 21 15.7206 20.8419 15.4393 20.5606C15.158 20.2793 15 19.8978 15 19.5C15 19.1022 15.158 18.7206 15.4393 18.4393C15.7206 18.158 16.1022 18 16.5 18Z" fill="#616161"/>
</svg>
