<svg width="24" height="24" viewBox="0 0 24 24" fill="none" xmlns="http://www.w3.org/2000/svg">
<path d="M22 8.16204V8.23504C22 9.09504 22 9.52604 21.793 9.87804C21.586 10.23 21.209 10.439 20.457 10.858L19.664 11.298C20.21 9.45004 20.393 7.46404 20.46 5.76604L20.47 5.54504L20.472 5.49304C21.123 5.71904 21.489 5.88804 21.717 6.20404C22 6.59704 22 7.11904 22 8.16204ZM2 8.16204V8.23504C2 9.09504 2 9.52604 2.207 9.87804C2.414 10.23 2.791 10.439 3.543 10.858L4.337 11.298C3.79 9.45004 3.607 7.46404 3.54 5.76604L3.53 5.54504L3.529 5.49304C2.877 5.71904 2.511 5.88804 2.283 6.20404C2 6.59704 2 7.12004 2 8.16204Z" fill="#616161"/>
<path fill-rule="evenodd" clip-rule="evenodd" d="M12 1.99999C13.784 1.99999 15.253 2.15699 16.377 2.34699C17.516 2.53899 18.085 2.63499 18.561 3.22099C19.037 3.80699 19.011 4.43999 18.961 5.70599C18.789 10.055 17.851 15.486 12.75 15.966V19.5H14.18C14.4111 19.5001 14.635 19.5803 14.8137 19.7269C14.9923 19.8735 15.1147 20.0774 15.16 20.304L15.35 21.25H18C18.1989 21.25 18.3897 21.329 18.5303 21.4697C18.671 21.6103 18.75 21.8011 18.75 22C18.75 22.1989 18.671 22.3897 18.5303 22.5303C18.3897 22.671 18.1989 22.75 18 22.75H6C5.80109 22.75 5.61033 22.671 5.46967 22.5303C5.32902 22.3897 5.25 22.1989 5.25 22C5.25 21.8011 5.32902 21.6103 5.46967 21.4697C5.61033 21.329 5.80109 21.25 6 21.25H8.65L8.84 20.304C8.8853 20.0774 9.00768 19.8735 9.18634 19.7269C9.365 19.5803 9.58891 19.5001 9.82 19.5H11.25V15.966C6.15 15.486 5.212 10.054 5.04 5.70599C4.989 4.43999 4.964 3.80599 5.44 3.22099C5.915 2.63499 6.484 2.53899 7.623 2.34699C9.06982 2.10987 10.5339 1.9938 12 1.99999ZM12.952 6.19899L12.854 6.02299C12.474 5.33999 12.284 4.99999 12 4.99999C11.716 4.99999 11.526 5.33999 11.146 6.02299L11.048 6.19899C10.94 6.39299 10.886 6.48899 10.802 6.55299C10.717 6.61699 10.612 6.64099 10.402 6.68799L10.212 6.73199C9.474 6.89899 9.105 6.98199 9.017 7.26399C8.929 7.54699 9.181 7.84099 9.684 8.42899L9.814 8.58099C9.957 8.74799 10.029 8.83099 10.061 8.93499C10.093 9.03899 10.082 9.14999 10.061 9.37299L10.041 9.57599C9.965 10.361 9.927 10.754 10.156 10.928C10.386 11.102 10.732 10.943 11.423 10.625L11.601 10.543C11.798 10.453 11.896 10.408 12 10.408C12.104 10.408 12.202 10.453 12.399 10.543L12.577 10.625C13.268 10.944 13.614 11.102 13.844 10.928C14.074 10.754 14.035 10.361 13.959 9.57599L13.939 9.37299C13.918 9.14999 13.907 9.03899 13.939 8.93499C13.971 8.83199 14.043 8.74799 14.186 8.58099L14.316 8.42899C14.819 7.84099 15.071 7.54699 14.983 7.26399C14.895 6.98199 14.526 6.89899 13.788 6.73199L13.598 6.68799C13.388 6.64099 13.283 6.61799 13.198 6.55299C13.114 6.48899 13.06 6.39299 12.952 6.19899Z" fill="#616161"/>
</svg>
