<svg width="30" height="30" viewBox="0 0 30 30" fill="none" xmlns="http://www.w3.org/2000/svg">
<path d="M2.79626 2.86003C2.67899 2.81924 2.55479 2.80214 2.43086 2.80974C2.30693 2.81734 2.18575 2.84947 2.07434 2.90429C1.96294 2.9591 1.86353 3.03549 1.78189 3.12904C1.70025 3.22258 1.63801 3.33141 1.59877 3.44921C1.55953 3.567 1.54408 3.69142 1.55332 3.81524C1.56256 3.93905 1.5963 4.0598 1.65258 4.17047C1.70886 4.28114 1.78657 4.37953 1.88119 4.45992C1.97581 4.54031 2.08545 4.60111 2.20376 4.63878L2.53501 4.75003C3.38001 5.03128 3.94001 5.22003 4.35126 5.41128C4.74126 5.59253 4.91001 5.73878 5.01751 5.88878C5.12626 6.03878 5.21126 6.24378 5.26001 6.67128C5.31126 7.12253 5.31251 7.71253 5.31251 8.60378V11.9438C5.31251 13.6525 5.31251 15.0313 5.45876 16.115C5.60876 17.24 5.93376 18.1875 6.68626 18.94C7.43751 19.6925 8.38626 20.015 9.51126 20.1663C10.5938 20.3125 11.9725 20.3125 13.6813 20.3125H22.5C22.7486 20.3125 22.9871 20.2138 23.1629 20.0379C23.3387 19.8621 23.4375 19.6237 23.4375 19.375C23.4375 19.1264 23.3387 18.8879 23.1629 18.7121C22.9871 18.5363 22.7486 18.4375 22.5 18.4375H13.75C11.9563 18.4375 10.705 18.435 9.76 18.3088C8.84376 18.185 8.35751 17.9588 8.01126 17.6138C7.7175 17.32 7.51126 16.925 7.37876 16.25H20.0288C21.2275 16.25 21.8263 16.25 22.2963 15.94C22.7663 15.63 23.0025 15.08 23.475 13.9775L24.01 12.7275C25.0225 10.365 25.5288 9.18503 24.9725 8.34253C24.4163 7.50003 23.1325 7.50003 20.5625 7.50003H7.18126C7.17779 7.15223 7.15818 6.80477 7.12251 6.45878C7.05376 5.85253 6.90251 5.29628 6.53876 4.79253C6.175 4.28753 5.695 3.96753 5.14251 3.71128C4.62126 3.46878 3.96001 3.24878 3.17751 2.98628L2.79626 2.86003ZM9.37501 22.5C9.87229 22.5 10.3492 22.6976 10.7008 23.0492C11.0525 23.4008 11.25 23.8778 11.25 24.375C11.25 24.8723 11.0525 25.3492 10.7008 25.7009C10.3492 26.0525 9.87229 26.25 9.37501 26.25C8.87772 26.25 8.40081 26.0525 8.04918 25.7009C7.69755 25.3492 7.50001 24.8723 7.50001 24.375C7.50001 23.8778 7.69755 23.4008 8.04918 23.0492C8.40081 22.6976 8.87772 22.5 9.37501 22.5ZM20.625 22.5C21.1223 22.5 21.5992 22.6976 21.9508 23.0492C22.3025 23.4008 22.5 23.8778 22.5 24.375C22.5 24.8723 22.3025 25.3492 21.9508 25.7009C21.5992 26.0525 21.1223 26.25 20.625 26.25C20.1277 26.25 19.6508 26.0525 19.2992 25.7009C18.9475 25.3492 18.75 24.8723 18.75 24.375C18.75 23.8778 18.9475 23.4008 19.2992 23.0492C19.6508 22.6976 20.1277 22.5 20.625 22.5Z" fill="#EDEDED"/>
</svg>
